<?xml version="1.0" standalone="no"?>
<!DOCTYPE svg PUBLIC "-//W3C//DTD SVG 20010904//EN"
 "http://www.w3.org/TR/2001/REC-SVG-20010904/DTD/svg10.dtd">
<svg version="1.0" xmlns="http://www.w3.org/2000/svg"
 width="512.000000pt" height="512.000000pt" viewBox="0 0 512.000000 512.000000"
 preserveAspectRatio="xMidYMid meet">
<metadata>
Created by potrace 1.16, written by Peter Selinger 2001-2019
</metadata>
<g transform="translate(0.000000,512.000000) scale(0.100000,-0.100000)"
fill="#D83535" stroke="none">
<path d="M4550 4635 l-106 -105 -43 15 c-30 10 -84 15 -175 15 -118 1 -129 2
-111 16 11 8 38 19 60 25 22 6 45 14 50 18 11 7 42 7 132 -3 44 -5 64 -3 69 6
4 6 2 14 -5 16 -7 2 -24 15 -39 29 -37 35 -67 44 -138 45 -65 0 -138 -18 -129
-32 3 -5 0 -12 -6 -16 -8 -4 -9 -3 -5 4 23 38 -83 -20 -134 -73 l-34 -35
-1584 0 c-1215 0 -1594 -3 -1626 -12 -55 -16 -138 -99 -154 -154 -17 -59 -18
-3608 0 -3666 6 -22 31 -62 55 -88 33 -37 39 -49 28 -54 -8 -3 -15 -11 -15
-18 0 -9 3 -9 12 0 14 14 68 16 68 2 0 -13 -64 -24 -95 -16 -20 5 -31 1 -48
-18 -18 -21 -23 -22 -32 -9 -9 12 -18 13 -53 3 -42 -11 -67 -7 -57 10 3 5 1
11 -5 15 -5 3 -10 1 -10 -6 0 -6 -8 -9 -20 -6 -11 3 -20 1 -20 -4 0 -5 11 -9
25 -9 37 0 30 -20 -7 -21 -18 0 -55 -7 -83 -14 -43 -11 -46 -13 -19 -14 45 -2
52 -28 11 -40 -31 -9 -31 -9 -5 -10 20 -1 26 -5 22 -16 -4 -9 -15 -13 -29 -11
-13 2 -31 -1 -39 -7 -13 -10 4 -12 78 -12 52 0 92 -3 90 -7 -6 -10 27 2 45 16
12 9 13 6 7 -16 -5 -24 -4 -28 15 -25 12 1 24 -4 26 -10 3 -9 -6 -13 -26 -13
-24 0 -29 -4 -28 -20 2 -25 25 -26 43 -3 13 17 15 17 29 -1 21 -27 19 -46 -4
-46 -22 0 -37 -17 -26 -28 4 -4 10 -1 12 6 5 14 43 16 43 2 0 -5 9 -10 20 -10
11 0 20 5 20 10 0 6 -9 10 -20 10 -20 0 -20 1 -4 25 17 27 39 29 39 4 1 -28
15 -40 36 -29 11 6 23 9 27 6 4 -3 14 -1 22 5 10 6 11 9 3 9 -9 0 -11 10 -6
30 4 20 2 30 -7 30 -7 0 -10 -8 -7 -20 6 -24 -17 -50 -44 -50 -24 0 -15 20 9
21 11 1 8 4 -8 9 -25 8 -25 8 5 10 20 2 24 4 12 7 -16 4 -15 7 8 19 15 8 31
11 36 8 5 -3 9 0 9 5 0 6 16 11 35 11 34 0 34 -1 18 -20 -18 -20 -39 -28 -28
-10 4 6 -1 7 -11 3 -11 -4 -13 -8 -6 -11 7 -2 12 -16 12 -30 1 -26 1 -26 15 6
8 19 24 36 35 39 11 3 20 9 20 14 0 5 7 9 15 9 8 0 15 5 15 10 0 6 13 8 30 5
19 -3 39 1 55 11 25 16 55 13 55 -5 0 -5 -8 -12 -17 -14 -10 -3 0 -6 22 -7 39
-2 39 -3 10 -10 -32 -7 -30 -9 42 -30 l42 -13 -24 -18 c-30 -25 -33 -24 -27 7
5 25 4 26 -19 13 -24 -13 -30 -15 -50 -18 -5 0 -7 -5 -4 -11 3 -5 -3 -10 -14
-10 -12 0 -21 -4 -21 -10 0 -5 6 -7 14 -4 8 3 17 1 21 -5 3 -6 -1 -11 -10 -11
-9 0 -13 -4 -10 -10 3 -5 15 -10 26 -10 11 0 17 -4 14 -10 -3 -5 -1 -10 4 -10
6 0 11 5 11 10 0 19 32 10 37 -10 7 -26 46 -36 89 -22 19 5 32 6 29 2 -10 -16
15 -21 30 -6 19 19 19 26 -1 26 -8 0 -12 5 -9 10 3 6 17 8 31 6 13 -3 24 0 24
5 0 5 5 9 12 9 6 0 8 -3 5 -7 -4 -3 2 -13 13 -20 11 -8 18 -19 15 -24 -8 -12
2 -11 26 2 12 6 18 17 15 25 -4 9 2 14 17 14 16 0 19 3 8 9 -11 7 -9 10 8 16
11 3 21 10 21 14 0 5 12 7 28 5 16 -2 19 -1 7 2 -21 6 -60 42 -63 59 -2 6 -16
10 -32 10 -22 0 -30 5 -30 17 0 20 15 24 25 8 9 -15 52 -12 69 5 13 13 15 13
18 0 3 -13 6 -13 32 0 32 17 49 20 26 5 -12 -8 -9 -10 12 -10 19 0 26 -4 22
-13 -3 -8 2 -14 13 -14 23 0 36 19 20 29 -9 5 -6 13 8 26 16 15 31 18 68 14
43 -4 48 -7 44 -24 -4 -15 -2 -18 11 -12 32 13 176 10 191 -4 12 -12 12 -15 0
-23 -11 -7 -8 -9 9 -9 14 0 21 4 17 11 -7 10 38 6 87 -8 13 -3 16 0 12 12 -5
11 0 18 16 22 15 4 20 11 17 24 -3 11 -1 19 5 19 18 0 2 23 -18 25 -10 1 -23
3 -29 5 -5 1 -19 2 -30 1 -17 -1 -18 -3 -5 -11 8 -5 25 -10 38 -10 26 0 28 -6
8 -25 -16 -16 -86 -9 -98 9 -5 8 -8 7 -8 -1 0 -7 -11 -13 -25 -13 -14 0 -25 5
-25 10 0 6 -7 10 -15 10 -8 0 -15 5 -15 11 0 6 10 9 23 7 14 -3 24 0 24 7 0 8
-12 9 -41 4 -54 -11 -64 -11 -47 0 7 5 12 14 9 21 -3 9 -8 8 -20 -4 -9 -9 -22
-16 -28 -16 -7 0 -9 -7 -6 -16 4 -10 2 -14 -6 -11 -7 2 -12 10 -11 16 3 11 -1
13 -50 16 -15 1 -31 6 -35 10 -4 4 19 5 51 3 41 -3 61 -1 69 9 8 10 24 12 57
7 25 -4 72 -6 104 -5 46 2 57 -1 51 -11 -4 -7 2 -5 13 4 23 21 54 23 71 6 10
-10 15 -10 21 1 6 9 16 11 32 6 21 -7 21 -6 8 8 -9 8 -24 17 -35 20 -10 3 0 4
24 2 24 -3 53 -12 65 -21 l22 -16 -23 5 c-12 3 -20 1 -16 -4 14 -23 99 14 89
40 -3 7 0 20 6 27 16 19 40 18 33 -1 -4 -8 -1 -15 5 -15 6 0 11 5 11 10 0 6 5
10 11 10 5 0 7 -5 3 -12 -5 -8 0 -9 17 -5 13 4 38 7 54 8 24 0 26 2 11 8 -40
15 9 25 133 28 79 1 120 -2 110 -8 -9 -6 -10 -9 -1 -9 6 0 12 -7 12 -15 0 -8
8 -15 18 -15 14 0 15 2 2 10 -13 8 -12 10 3 10 9 0 17 7 17 15 0 8 7 15 16 15
8 0 12 -5 9 -10 -3 -6 -1 -10 4 -10 6 0 11 5 11 10 0 6 11 10 25 10 31 0 32
-13 3 -28 -21 -9 -21 -10 -3 -10 11 0 29 -3 40 -7 14 -5 16 -4 6 3 -9 7 -10
11 -2 17 7 4 18 2 25 -4 7 -6 16 -8 19 -4 4 3 7 1 7 -5 0 -5 -6 -13 -12 -16
-7 -3 -3 -3 9 -1 12 3 24 1 28 -5 4 -6 -5 -10 -22 -10 -15 0 -35 -5 -43 -10
-11 -8 -9 -9 10 -5 21 5 26 2 27 -14 1 -13 -6 -21 -20 -24 -20 -4 -19 -4 3 -5
34 -2 60 15 41 27 -19 12 3 24 30 16 20 -7 20 -8 -9 -35 -18 -16 -47 -30 -72
-34 -22 -3 -39 -10 -36 -15 3 -5 18 -6 32 -3 19 3 25 1 20 -7 -11 -17 22 -14
84 8 39 14 59 16 67 9 7 -6 24 -8 38 -6 17 4 25 1 25 -8 0 -8 5 -14 11 -14 6
0 9 7 5 15 -3 10 1 15 13 15 11 0 27 3 37 7 11 4 15 3 10 -5 -3 -6 -2 -13 3
-16 5 -4 12 2 16 13 7 23 32 34 41 19 4 -6 3 -8 -2 -5 -6 3 -15 -3 -21 -13
-10 -16 -8 -18 20 -23 18 -2 34 -1 35 4 2 5 10 9 18 9 9 0 12 5 9 10 -3 6 -1
10 4 10 6 0 11 -5 11 -11 0 -5 4 -8 9 -4 5 3 13 -5 17 -17 l7 -23 8 23 c5 12
16 22 26 22 14 0 15 -2 4 -9 -11 -7 -9 -11 8 -21 13 -6 29 -9 38 -6 8 3 24 1
35 -5 17 -9 20 -9 15 3 -4 12 4 15 37 14 36 -1 40 -3 27 -13 -24 -19 1 -15 28
3 13 9 55 20 93 24 39 4 73 12 77 16 3 5 13 11 21 13 59 14 77 20 93 26 10 4
17 3 17 -4 0 -7 10 -16 23 -22 18 -8 14 -9 -21 -5 -36 4 -41 2 -31 -10 7 -8
30 -14 60 -14 53 0 75 -16 32 -23 -16 -2 -6 -5 23 -6 28 0 54 2 58 6 4 5 78 8
164 8 159 0 344 19 350 36 2 5 16 9 30 9 21 0 24 -2 12 -10 -13 -8 -13 -10 2
-10 10 0 39 14 65 30 26 17 61 30 77 30 17 0 40 7 50 15 11 8 31 15 45 15 25
1 25 2 -13 35 -29 26 -35 35 -21 35 14 0 15 3 5 15 -11 14 -7 19 13 16 4 0 7
4 7 10 0 6 9 9 20 6 10 -3 24 1 31 9 6 8 18 14 26 14 8 0 11 4 8 10 -3 5 -19
7 -35 3 -29 -5 -42 9 -20 22 5 3 15 16 22 28 10 19 9 20 -4 10 -8 -7 -18 -10
-21 -6 -4 3 -7 1 -7 -5 0 -7 -7 -12 -15 -12 -8 0 -15 2 -15 5 0 14 55 55 74
56 15 1 13 3 -9 9 -28 7 -29 8 -8 15 18 6 21 11 12 26 -5 10 -6 19 -2 20 4 1
-3 4 -17 9 l-25 7 25 11 c24 10 24 11 3 11 -27 1 -30 19 -5 28 16 6 32 22 32
33 0 3 -19 11 -42 18 -23 7 -61 22 -85 33 -23 10 -47 19 -52 19 -8 0 -11 450
-11 1485 0 863 4 1485 9 1485 25 0 113 97 142 155 26 54 31 75 31 139 0 89
-17 168 -40 190 -28 26 -79 66 -86 66 -3 0 -6 -7 -6 -16 0 -8 -4 -12 -10 -9
-13 8 -13 4 7 -41 11 -27 17 -69 17 -139 1 -84 -3 -107 -21 -147 -13 -26 -27
-49 -32 -53 -6 -3 -11 55 -13 142 -2 117 -7 155 -21 182 l-17 35 38 40 c20 23
69 74 107 115 67 71 69 74 47 84 -12 6 -22 16 -22 22 0 7 -7 16 -16 19 -12 5
-47 -24 -124 -99z m-260 -765 c0 -5 -5 -10 -11 -10 -5 0 -7 5 -4 10 3 6 8 10
11 10 2 0 4 -4 4 -10z m-470 -2830 c0 -5 -17 -10 -37 -9 -31 0 -34 2 -18 9 28
12 55 12 55 0z m166 -18 c-10 -2 -22 0 -28 6 -6 6 0 7 19 4 21 -5 23 -7 9 -10z
m-516 -2 c0 -5 -7 -10 -16 -10 -8 0 -12 5 -9 10 3 6 10 10 16 10 5 0 9 -4 9
-10z m-823 -87 c-9 -2 -15 -9 -12 -14 4 -5 -1 -9 -10 -9 -9 0 -14 4 -10 9 3 5
-3 12 -12 14 -10 3 0 5 22 5 22 0 32 -2 22 -5z m80 -9 c-3 -3 -12 -4 -19 -1
-8 3 -5 6 6 6 11 1 17 -2 13 -5z m36 -31 c-7 -2 -21 -2 -30 0 -10 3 -4 5 12 5
17 0 24 -2 18 -5z m-590 -20 c-7 -2 -19 -2 -25 0 -7 3 -2 5 12 5 14 0 19 -2
13 -5z m-46 -9 c-3 -3 -12 -4 -19 -1 -8 3 -5 6 6 6 11 1 17 -2 13 -5z m-117
-34 c0 -5 -19 -9 -42 -9 -40 1 -41 2 -13 9 44 11 55 11 55 0z m-177 -7 c-7 -2
-21 -2 -30 0 -10 3 -4 5 12 5 17 0 24 -2 18 -5z m2857 -93 c0 -5 -2 -10 -4
-10 -2 0 -12 -3 -22 -7 -16 -6 -17 -5 -4 10 17 19 30 22 30 7z m3 -107 c-7 -2
-19 -2 -25 0 -7 3 -2 5 12 5 14 0 19 -2 13 -5z m-1886 -69 c-3 -3 -12 -4 -19
-1 -8 3 -5 6 6 6 11 1 17 -2 13 -5z m79 -8 c18 -19 18 -26 -2 -26 -8 0 -13 -4
-10 -9 3 -5 -4 -11 -17 -15 -35 -9 -37 -8 -27 20 7 16 7 23 0 19 -6 -3 -10 -2
-10 4 0 5 10 12 23 14 12 2 23 5 25 6 2 0 10 -5 18 -13z m-586 -6 c0 -5 -4
-10 -10 -10 -5 0 -10 5 -10 10 0 6 5 10 10 10 6 0 10 -4 10 -10z m2133 3 c-7
-2 -21 -2 -30 0 -10 3 -4 5 12 5 17 0 24 -2 18 -5z m-2443 -13 c0 -13 -30 -13
-50 0 -11 7 -7 10 18 10 17 0 32 -4 32 -10z m97 4 c-3 -3 -12 -4 -19 -1 -8 3
-5 6 6 6 11 1 17 -2 13 -5z m2495 -6 c46 2 23 -32 -32 -48 -28 -8 -30 -7 -19
7 12 13 8 15 -38 12 -28 -2 -49 -1 -47 3 2 4 -6 8 -18 11 -22 3 -22 4 -4 12
13 6 21 5 24 -4 3 -9 7 -9 18 0 11 9 18 9 26 1 7 -7 19 -12 28 -11 11 0 12 2
1 6 -11 5 -11 7 0 14 8 5 21 6 29 3 8 -4 23 -6 32 -6z m-4052 -8 c-8 -5 -19
-10 -25 -10 -5 0 -3 5 5 10 8 5 20 10 25 10 6 0 3 -5 -5 -10z m1346 -1 c12
-20 -11 -30 -42 -18 l-29 12 25 7 c36 11 38 11 46 -1z m2411 5 c-3 -3 -12 -4
-19 -1 -8 3 -5 6 6 6 11 1 17 -2 13 -5z m-2204 -11 c-7 -2 -19 -2 -25 0 -7 3
-2 5 12 5 14 0 19 -2 13 -5z m2277 3 c0 -9 -30 -14 -35 -6 -4 6 3 10 14 10 12
0 21 -2 21 -4z m-3893 -22 c-3 -3 -12 -4 -19 -1 -8 3 -5 6 6 6 11 1 17 -2 13
-5z m1502 -4 c-16 -11 -89 -10 -89 0 0 4 23 8 51 8 31 0 46 -4 38 -8z m-1604
-10 c-3 -5 -10 -10 -16 -10 -5 0 -9 5 -9 10 0 6 7 10 16 10 8 0 12 -4 9 -10z
m172 4 c-3 -3 -12 -4 -19 -1 -8 3 -5 6 6 6 11 1 17 -2 13 -5z m1210 0 c-3 -3
-12 -4 -19 -1 -8 3 -5 6 6 6 11 1 17 -2 13 -5z m2449 -4 c9 0 12 -4 9 -10 -3
-5 -16 -9 -28 -8 -12 0 -31 -3 -42 -7 l-20 -8 20 21 c11 11 26 19 33 16 8 -2
20 -4 28 -4z m-3719 -6 c-3 -3 -12 -4 -19 -1 -8 3 -5 6 6 6 11 1 17 -2 13 -5z
m2413 -9 c-8 -10 -10 -19 -4 -25 11 -11 54 -2 54 12 0 6 11 7 24 4 15 -4 26
-1 29 7 3 7 6 4 6 -6 1 -10 6 -15 11 -12 6 3 10 1 10 -5 0 -8 -9 -10 -24 -6
-13 3 -42 -1 -64 -8 -23 -8 -56 -14 -74 -14 -18 1 -27 3 -20 5 6 3 10 9 6 14
-3 5 5 18 18 29 28 23 46 26 28 5z m990 1 c0 -17 22 -26 61 -26 19 0 29 -5 29
-15 0 -8 8 -15 18 -15 14 0 15 -2 2 -10 -8 -5 -37 -9 -65 -9 -27 1 -42 3 -32
6 37 10 13 22 -58 28 -86 8 -100 25 -22 26 28 0 46 3 38 6 -11 5 -11 7 0 14
20 13 29 11 29 -5z m66 -1 c29 -15 17 -20 -23 -9 -13 4 -20 10 -17 15 7 12 7
12 40 -6z m142 9 c40 -11 23 -24 -25 -20 -89 8 -90 8 -58 16 40 10 56 11 83 4z
m172 -2 c0 -5 20 -6 45 -2 25 4 48 4 50 0 7 -11 -78 -22 -109 -14 -14 3 -23
10 -20 15 7 11 34 12 34 1z m-3836 -11 c7 -10 -17 -21 -45 -21 -12 0 -17 4
-14 11 4 6 14 8 22 5 8 -3 11 -1 8 4 -3 6 1 10 9 10 8 0 17 -4 20 -9z m613 3
c-3 -3 -12 -4 -19 -1 -8 3 -5 6 6 6 11 1 17 -2 13 -5z m2107 -2 c2 -4 -5 -9
-17 -9 -17 -2 -19 0 -7 7 18 12 18 12 24 2z m303 2 c-3 -3 -12 -4 -19 -1 -8 3
-5 6 6 6 11 1 17 -2 13 -5z m346 -1 c-13 -2 -33 -2 -45 0 -13 2 -3 4 22 4 25
0 35 -2 23 -4z m-493 -13 c0 -5 -7 -10 -16 -10 -8 0 -12 5 -9 10 3 6 10 10 16
10 5 0 9 -4 9 -10z m355 0 c-28 -12 -37 -12 -30 0 3 6 16 10 28 9 21 0 21 -1
2 -9z m-2588 -6 c-3 -3 -12 -4 -19 -1 -8 3 -5 6 6 6 11 1 17 -2 13 -5z m1983
-4 c0 -5 -5 -10 -11 -10 -5 0 -7 5 -4 10 3 6 8 10 11 10 2 0 4 -4 4 -10z
m-2137 -7 c-7 -2 -19 -2 -25 0 -7 3 -2 5 12 5 14 0 19 -2 13 -5z m492 -3 c3
-5 1 -10 -4 -10 -6 0 -11 5 -11 10 0 6 2 10 4 10 3 0 8 -4 11 -10z m2095 0 c0
-5 -5 -10 -11 -10 -5 0 -7 5 -4 10 3 6 8 10 11 10 2 0 4 -4 4 -10z m90 0 c0
-5 -11 -10 -24 -10 -13 0 -32 -3 -40 -6 -12 -5 -15 -2 -10 10 7 18 74 23 74 6z
m-2790 -10 c0 -5 -8 -10 -17 -10 -15 0 -16 2 -3 10 19 12 20 12 20 0z m67 4
c-3 -3 -12 -4 -19 -1 -8 3 -5 6 6 6 11 1 17 -2 13 -5z m196 -1 c-7 -2 -21 -2
-30 0 -10 3 -4 5 12 5 17 0 24 -2 18 -5z m2331 -8 c-4 -8 -1 -15 7 -15 7 0 10
-3 7 -6 -8 -8 -48 14 -48 26 0 6 9 10 20 10 13 0 18 -5 14 -15z m-1944 -11 c0
-8 -4 -12 -10 -9 -5 3 -10 10 -10 16 0 5 5 9 10 9 6 0 10 -7 10 -16z m-1045
-5 c-3 -3 -19 -6 -37 -6 -26 -1 -29 1 -13 7 23 9 55 9 50 -1z m195 1 c0 -5 -4
-10 -10 -10 -5 0 -10 5 -10 10 0 6 5 10 10 10 6 0 10 -4 10 -10z m280 0 c0 -5
-5 -10 -11 -10 -5 0 -7 5 -4 10 3 6 8 10 11 10 2 0 4 -4 4 -10z m865 0 c-3 -5
-17 -10 -31 -10 -13 0 -24 5 -24 10 0 6 14 10 31 10 17 0 28 -4 24 -10z m2434
-6 c9 -8 -115 -3 -128 5 -8 5 14 7 55 4 38 -3 71 -7 73 -9z m-3396 -11 c-7 -2
-19 -2 -25 0 -7 3 -2 5 12 5 14 0 19 -2 13 -5z m265 -4 c6 17 22 13 22 -5 0
-8 -4 -13 -9 -9 -5 3 -12 2 -15 -3 -6 -11 -66 -3 -66 8 0 14 24 18 45 7 13 -7
20 -6 23 2z m182 7 c0 -3 -4 -8 -10 -11 -5 -3 -10 -1 -10 4 0 6 5 11 10 11 6
0 10 -2 10 -4z m547 -2 c-3 -3 -12 -4 -19 -1 -8 3 -5 6 6 6 11 1 17 -2 13 -5z
m-1077 -14 c0 -5 -8 -10 -17 -10 -15 0 -16 2 -3 10 19 12 20 12 20 0z m425 0
c3 -5 1 -10 -4 -10 -6 0 -11 5 -11 10 0 6 2 10 4 10 3 0 8 -4 11 -10z m48 3
c-7 -2 -19 -2 -25 0 -7 3 -2 5 12 5 14 0 19 -2 13 -5z m762 -23 c-3 -5 -13
-10 -21 -10 -8 0 -14 5 -14 10 0 6 9 10 21 10 11 0 17 -4 14 -10z m-1375 -4
c0 -2 -7 -6 -15 -10 -8 -3 -15 -1 -15 4 0 6 7 10 15 10 8 0 15 -2 15 -4z m625
-26 c3 -5 -1 -10 -10 -10 -9 0 -13 5 -10 10 3 6 8 10 10 10 2 0 7 -4 10 -10z
m-578 -6 c-3 -3 -12 -4 -19 -1 -8 3 -5 6 6 6 11 1 17 -2 13 -5z m543 -4 c0 -5
-8 -10 -17 -11 -15 0 -15 -2 2 -9 18 -7 18 -8 -8 -15 -34 -9 -37 -6 -26 23 8
22 49 32 49 12z m137 -6 c-3 -3 -12 -4 -19 -1 -8 3 -5 6 6 6 11 1 17 -2 13 -5z
m-77 -14 c0 -5 -7 -10 -16 -10 -8 0 -12 5 -9 10 3 6 10 10 16 10 5 0 9 -4 9
-10z m105 -20 c1 -11 -2 -20 -5 -20 -4 0 -22 -3 -39 -6 -42 -9 -41 12 2 22 17
4 26 9 18 12 -11 4 -11 6 0 13 16 10 22 5 24 -21z m-323 -32 c-9 -9 -15 -9
-24 0 -9 9 -7 12 12 12 19 0 21 -3 12 -12z m78 8 c0 -2 -9 -6 -20 -9 -11 -3
-18 -1 -14 4 5 9 34 13 34 5z m125 -6 c-3 -5 -11 -10 -16 -10 -6 0 -7 5 -4 10
3 6 11 10 16 10 6 0 7 -4 4 -10z m80 -20 c-3 -5 -11 -10 -16 -10 -6 0 -7 5 -4
10 3 6 11 10 16 10 6 0 7 -4 4 -10z m-170 -39 c-3 -6 -11 -11 -17 -11 -6 0 -6
6 2 15 14 17 26 13 15 -4z"/>
<path d="M3925 420 c-3 -5 -1 -10 4 -10 6 0 11 5 11 10 0 6 -2 10 -4 10 -3 0
-8 -4 -11 -10z"/>
<path d="M4780 859 c0 -5 5 -7 10 -4 6 3 10 8 10 11 0 2 -4 4 -10 4 -5 0 -10
-5 -10 -11z"/>
<path d="M4918 853 c7 -3 16 -2 19 1 4 3 -2 6 -13 5 -11 0 -14 -3 -6 -6z"/>
<path d="M4776 695 c4 -8 10 -15 15 -15 5 0 9 7 9 15 0 8 -7 15 -15 15 -9 0
-12 -6 -9 -15z"/>
<path d="M4745 690 c-3 -5 -1 -10 4 -10 6 0 11 5 11 10 0 6 -2 10 -4 10 -3 0
-8 -4 -11 -10z"/>
<path d="M4780 574 c0 -8 5 -12 10 -9 6 3 10 10 10 16 0 5 -4 9 -10 9 -5 0
-10 -7 -10 -16z"/>
<path d="M585 570 c-8 -13 5 -13 25 0 13 8 13 10 -2 10 -9 0 -20 -4 -23 -10z"/>
<path d="M4685 560 c4 -6 11 -8 16 -5 14 9 11 15 -7 15 -8 0 -12 -5 -9 -10z"/>
<path d="M468 553 c6 -2 18 -2 25 0 6 3 1 5 -13 5 -14 0 -19 -2 -12 -5z"/>
<path d="M2484 525 c1 -33 16 -33 16 0 0 14 -4 25 -9 25 -5 0 -8 -11 -7 -25z"/>
<path d="M320 530 c-9 -6 -10 -10 -3 -10 6 0 15 5 18 10 8 12 4 12 -15 0z"/>
<path d="M2430 500 c0 -5 7 -10 15 -10 8 0 15 5 15 10 0 6 -7 10 -15 10 -8 0
-15 -4 -15 -10z"/>
<path d="M2663 494 c0 -16 13 -19 21 -5 3 5 0 11 -7 14 -8 3 -14 -1 -14 -9z"/>
<path d="M2225 480 c-3 -5 -1 -10 4 -10 6 0 11 5 11 10 0 6 -2 10 -4 10 -3 0
-8 -4 -11 -10z"/>
<path d="M2300 481 c0 -5 5 -13 10 -16 6 -3 10 -2 10 4 0 5 -4 13 -10 16 -5 3
-10 2 -10 -4z"/>
<path d="M2498 473 c7 -3 16 -2 19 1 4 3 -2 6 -13 5 -11 0 -14 -3 -6 -6z"/>
<path d="M2646 445 c5 -12 -169 -41 -185 -30 -6 3 -19 -3 -31 -15 -11 -11 -16
-20 -11 -20 6 0 12 4 15 9 5 7 51 14 189 27 48 4 53 -23 5 -29 -32 -4 -32 -4
5 -5 29 -2 37 2 38 16 0 9 2 27 5 39 3 16 -1 21 -15 20 -10 0 -17 -6 -15 -12z"/>
<path d="M1943 443 c9 -2 23 -2 30 0 6 3 -1 5 -18 5 -16 0 -22 -2 -12 -5z"/>
<path d="M1866 424 c-8 -20 -8 -19 23 -29 16 -5 21 -4 17 4 -4 6 -14 11 -21
11 -9 0 -12 6 -9 15 4 8 4 15 1 15 -3 0 -8 -7 -11 -16z"/>
<path d="M2145 430 c-4 -6 3 -10 14 -10 25 0 27 6 6 13 -8 4 -17 2 -20 -3z"/>
<path d="M45 390 c-3 -5 -1 -10 4 -10 6 0 11 5 11 10 0 6 -2 10 -4 10 -3 0 -8
-4 -11 -10z"/>
<path d="M2358 393 c7 -3 16 -2 19 1 4 3 -2 6 -13 5 -11 0 -14 -3 -6 -6z"/>
<path d="M1525 380 c-8 -13 8 -18 29 -10 19 6 19 7 -2 12 -12 4 -24 2 -27 -2z"/>
<path d="M2090 379 c0 -6 8 -8 19 -4 11 3 22 1 26 -5 3 -6 11 -7 18 -3 7 4 4
9 -9 14 -28 11 -54 10 -54 -2z"/>
<path d="M2468 373 c6 -2 18 -2 25 0 6 3 1 5 -13 5 -14 0 -19 -2 -12 -5z"/>
<path d="M100 360 c-9 -6 -10 -10 -3 -10 6 0 15 5 18 10 8 12 4 12 -15 0z"/>
<path d="M194 356 c-30 -22 -6 -40 37 -28 19 6 26 11 17 11 -10 1 -18 8 -18
16 0 19 -11 19 -36 1z m26 -6 c0 -5 -5 -10 -11 -10 -5 0 -7 5 -4 10 3 6 8 10
11 10 2 0 4 -4 4 -10z"/>
<path d="M360 366 c0 -9 30 -14 35 -6 4 6 -3 10 -14 10 -12 0 -21 -2 -21 -4z"/>
<path d="M2190 360 c-18 -12 -2 -12 25 0 13 6 15 9 5 9 -8 0 -22 -4 -30 -9z"/>
<path d="M2718 363 c7 -3 16 -2 19 1 4 3 -2 6 -13 5 -11 0 -14 -3 -6 -6z"/>
<path d="M3159 359 c-11 -6 -11 -11 -1 -21 8 -8 12 -8 12 -1 0 6 8 13 18 15
15 3 15 4 1 10 -9 3 -22 2 -30 -3z"/>
<path d="M330 350 c8 -5 20 -10 25 -10 6 0 3 5 -5 10 -8 5 -19 10 -25 10 -5 0
-3 -5 5 -10z"/>
<path d="M415 351 c3 -5 -2 -12 -10 -14 -12 -4 -12 -5 1 -3 19 1 32 26 14 26
-6 0 -9 -4 -5 -9z"/>
<path d="M3310 356 c0 -2 7 -7 16 -10 8 -3 12 -2 9 4 -6 10 -25 14 -25 6z"/>
<path d="M275 340 c3 -5 8 -10 11 -10 2 0 4 5 4 10 0 6 -5 10 -11 10 -5 0 -7
-4 -4 -10z"/>
<path d="M824 338 c-5 -8 2 -9 24 -5 19 4 32 2 32 -3 0 -6 5 -10 11 -10 8 0 8
5 -1 15 -15 18 -56 20 -66 3z"/>
<path d="M1970 340 c-13 -8 -13 -10 2 -10 9 0 20 5 23 10 8 13 -5 13 -25 0z"/>
<path d="M1570 330 c0 -5 -7 -10 -16 -10 -8 0 -12 -5 -8 -11 4 -7 10 -7 16 -1
6 6 17 8 24 5 10 -4 12 0 8 11 -7 18 -24 22 -24 6z"/>
<path d="M1690 326 c26 -13 44 -11 35 5 -4 5 -18 9 -33 9 l-27 0 25 -14z"/>
<path d="M2175 330 c-3 -5 -2 -10 4 -10 5 0 13 5 16 10 3 6 2 10 -4 10 -5 0
-13 -4 -16 -10z"/>
<path d="M3891 336 c10 -9 79 -14 74 -5 -4 5 -22 9 -42 9 -20 0 -34 -2 -32 -4z"/>
<path d="M1430 316 c0 -9 5 -16 10 -16 6 0 10 4 10 9 0 6 -4 13 -10 16 -5 3
-10 -1 -10 -9z"/>
<path d="M808 313 c6 -2 18 -2 25 0 6 3 1 5 -13 5 -14 0 -19 -2 -12 -5z"/>
<path d="M1380 310 c0 -5 7 -10 16 -10 8 0 12 5 9 10 -3 6 -10 10 -16 10 -5 0
-9 -4 -9 -10z"/>
<path d="M1488 303 c7 -3 16 -2 19 1 4 3 -2 6 -13 5 -11 0 -14 -3 -6 -6z"/>
<path d="M1836 297 c-15 -11 -16 -15 -5 -19 22 -8 96 6 82 15 -7 5 -17 6 -22
2 -5 -3 -12 -1 -16 5 -8 13 -18 13 -39 -3z"/>
<path d="M803 292 c-9 -6 -7 -11 7 -20 16 -10 18 -9 17 8 -1 22 -6 24 -24 12z"/>
<path d="M130 270 c0 -4 7 -13 15 -20 10 -9 15 -9 15 -1 0 6 8 11 17 11 25 0
9 11 -21 14 -14 2 -26 0 -26 -4z"/>
<path d="M508 273 c6 -2 18 -2 25 0 6 3 1 5 -13 5 -14 0 -19 -2 -12 -5z"/>
<path d="M1528 263 c7 -3 16 -2 19 1 4 3 -2 6 -13 5 -11 0 -14 -3 -6 -6z"/>
<path d="M1598 263 c6 -2 18 -2 25 0 6 3 1 5 -13 5 -14 0 -19 -2 -12 -5z"/>
<path d="M425 250 c-3 -5 1 -10 10 -10 9 0 13 5 10 10 -3 6 -8 10 -10 10 -2 0
-7 -4 -10 -10z"/>
<path d="M1465 240 c-7 -12 2 -12 30 0 19 8 19 9 -2 9 -12 1 -25 -3 -28 -9z"/>
<path d="M468 223 c7 -3 16 -2 19 1 4 3 -2 6 -13 5 -11 0 -14 -3 -6 -6z"/>
<path d="M623 215 c0 -8 4 -15 9 -15 4 0 8 7 8 15 0 8 -4 15 -8 15 -5 0 -9 -7
-9 -15z"/>
<path d="M778 223 c7 -3 16 -2 19 1 4 3 -2 6 -13 5 -11 0 -14 -3 -6 -6z"/>
<path d="M410 200 c-9 -6 -10 -10 -3 -10 6 0 15 5 18 10 8 12 4 12 -15 0z"/>
<path d="M1345 191 c-15 -6 -9 -9 25 -14 41 -5 60 -3 49 7 -11 9 -56 13 -74 7z"/>
<path d="M582 164 c-14 -16 -5 -18 17 -5 7 5 9 11 5 14 -5 3 -15 -1 -22 -9z"/>
<path d="M925 170 c-3 -5 1 -10 10 -10 9 0 13 5 10 10 -3 6 -8 10 -10 10 -2 0
-7 -4 -10 -10z"/>
<path d="M960 146 c0 -8 7 -16 14 -19 11 -4 13 -1 9 10 -4 10 -2 14 5 9 6 -3
13 -2 17 4 4 6 -5 10 -19 10 -16 0 -26 -6 -26 -14z"/>
<path d="M1205 150 c-3 -5 1 -10 9 -10 8 0 18 5 21 10 3 6 -1 10 -9 10 -8 0
-18 -4 -21 -10z"/>
<path d="M1100 140 c-8 -5 -10 -10 -5 -10 6 0 17 5 25 10 8 5 11 10 5 10 -5 0
-17 -5 -25 -10z"/>
<path d="M1018 133 c6 -2 18 -2 25 0 6 3 1 5 -13 5 -14 0 -19 -2 -12 -5z"/>
<path d="M1138 103 c6 -2 18 -2 25 0 6 3 1 5 -13 5 -14 0 -19 -2 -12 -5z"/>
</g>
</svg>
